<?xml version="1.0" encoding="UTF-8" standalone="no"?>
<!DOCTYPE svg>
<svg width="1300" height="2530" xmlns="http://www.w3.org/2000/svg"><line x1="15" y1="5" x2="1295" y2="5" stroke="#000" stroke-width="1"/><line x1="15" y1="35" x2="1295" y2="35" stroke="#000" stroke-width="1"/><line x1="15" y1="5" x2="15" y2="2525" stroke="#000" stroke-width="1"/><line x1="95" y1="5" x2="95" y2="2525" stroke="#000" stroke-width="1"/><line x1="495" y1="5" x2="495" y2="2525" stroke="#000" stroke-width="1"/><line x1="895" y1="5" x2="895" y2="2525" stroke="#000" stroke-width="1"/><line x1="1295" y1="5" x2="1295" y2="2525" stroke="#000" stroke-width="1"/><text x="20" y="25" font-weight="bold">Month</text>
<text x="115" y="25" font-weight="bold">1st</text>
<text x="515" y="25" font-weight="bold">2nd</text>
<text x="915" y="25" font-weight="bold">3rd</text>
<text x="20" y="55">2015-12</text>
<text x="115" y="55">Star Wars: The Force Awakens</text>
<text x="515" y="55">Star Wars</text>
<text x="915" y="55">Web scraping</text>
<circle cx="105" cy="50" r="5" style="fill:#f80; stroke:#000"/>
<circle cx="505" cy="50" r="5" style="fill:#f80; stroke:#000"/>
<circle cx="905" cy="50" r="5" style="fill:#ccc; stroke:#000"/>
<line x1="15" y1="65" x2="1295" y2="65" stroke="#000" stroke-width="1"/><text x="20" y="85">2016-01</text>
<text x="115" y="85">David Bowie</text>
<text x="515" y="85">Bruce Kingsbury</text>
<text x="915" y="85">List of stock market crashes and bear markets</text>
<circle cx="105" cy="80" r="5" style="fill:#f00; stroke:#000"/>
<circle cx="505" cy="80" r="5" style="fill:#ccc; stroke:#000"/>
<circle cx="905" cy="80" r="5" style="fill:#ccc; stroke:#000"/>
<line x1="15" y1="95" x2="1295" y2="95" stroke="#000" stroke-width="1"/><text x="20" y="115">2016-02</text>
<text x="115" y="115">Web scraping</text>
<text x="515" y="115">Donald Trump</text>
<text x="915" y="115">Deadpool (film)</text>
<circle cx="105" cy="110" r="5" style="fill:#ccc; stroke:#000"/>
<circle cx="505" cy="110" r="5" style="fill:#f0f; stroke:#000"/>
<circle cx="905" cy="110" r="5" style="fill:#f80; stroke:#000"/>
<line x1="15" y1="125" x2="1295" y2="125" stroke="#000" stroke-width="1"/><text x="20" y="145">2016-03</text>
<text x="115" y="145">Donald Trump</text>
<text x="515" y="145">Batman v Superman: Dawn of Justice</text>
<text x="915" y="145">XHamster</text>
<circle cx="105" cy="140" r="5" style="fill:#f0f; stroke:#000"/>
<circle cx="505" cy="140" r="5" style="fill:#f80; stroke:#000"/>
<circle cx="905" cy="140" r="5" style="fill:#ccc; stroke:#000"/>
<line x1="15" y1="155" x2="1295" y2="155" stroke="#000" stroke-width="1"/><text x="20" y="175">2016-04</text>
<text x="115" y="175">Prince (musician)</text>
<text x="515" y="175">XHamster</text>
<text x="915" y="175">The Adventures of Tintin</text>
<circle cx="105" cy="170" r="5" style="fill:#f00; stroke:#000"/>
<circle cx="505" cy="170" r="5" style="fill:#ccc; stroke:#000"/>
<circle cx="905" cy="170" r="5" style="fill:#f0f; stroke:#000"/>
<line x1="15" y1="185" x2="1295" y2="185" stroke="#000" stroke-width="1"/><text x="20" y="205">2016-05</text>
<text x="115" y="205">Captain America: Civil War</text>
<text x="515" y="205">XHamster</text>
<text x="915" y="205">Azúcar Moreno</text>
<circle cx="105" cy="200" r="5" style="fill:#f80; stroke:#000"/>
<circle cx="505" cy="200" r="5" style="fill:#ccc; stroke:#000"/>
<circle cx="905" cy="200" r="5" style="fill:#ccc; stroke:#000"/>
<line x1="15" y1="215" x2="1295" y2="215" stroke="#000" stroke-width="1"/><text x="20" y="235">2016-06</text>
<text x="115" y="235">Muhammad Ali</text>
<text x="515" y="235">UEFA Euro 2016</text>
<text x="915" y="235">XHamster</text>
<circle cx="105" cy="230" r="5" style="fill:#f00; stroke:#000"/>
<circle cx="505" cy="230" r="5" style="fill:#00f; stroke:#000"/>
<circle cx="905" cy="230" r="5" style="fill:#ccc; stroke:#000"/>
<line x1="15" y1="245" x2="1295" y2="245" stroke="#000" stroke-width="1"/><text x="20" y="265">2016-07</text>
<text x="115" y="265">Pokémon Go</text>
<text x="515" y="265">XHamster</text>
<text x="915" y="265">Donald Trump</text>
<circle cx="105" cy="260" r="5" style="fill:#f80; stroke:#000"/>
<circle cx="505" cy="260" r="5" style="fill:#ccc; stroke:#000"/>
<circle cx="905" cy="260" r="5" style="fill:#f0f; stroke:#000"/>
<line x1="15" y1="275" x2="1295" y2="275" stroke="#000" stroke-width="1"/><text x="20" y="295">2016-08</text>
<text x="115" y="295">Michael Phelps</text>
<text x="515" y="295">Suicide Squad (film)</text>
<text x="915" y="295">2016 Summer Olympics</text>
<circle cx="105" cy="290" r="5" style="fill:#00f; stroke:#000"/>
<circle cx="505" cy="290" r="5" style="fill:#f80; stroke:#000"/>
<circle cx="905" cy="290" r="5" style="fill:#00f; stroke:#000"/>
<line x1="15" y1="305" x2="1295" y2="305" stroke="#000" stroke-width="1"/><text x="20" y="325">2016-09</text>
<text x="115" y="325">404.php</text>
<text x="515" y="325">AMGTV</text>
<text x="915" y="325">Proyecto 40</text>
<circle cx="105" cy="320" r="5" style="fill:#ccc; stroke:#000"/>
<circle cx="505" cy="320" r="5" style="fill:#ccc; stroke:#000"/>
<circle cx="905" cy="320" r="5" style="fill:#ccc; stroke:#000"/>
<line x1="15" y1="335" x2="1295" y2="335" stroke="#000" stroke-width="1"/><text x="20" y="355">2016-10</text>
<text x="115" y="355">404.php</text>
<text x="515" y="355">AMGTV</text>
<text x="915" y="355">Proyecto 40</text>
<circle cx="105" cy="350" r="5" style="fill:#ccc; stroke:#000"/>
<circle cx="505" cy="350" r="5" style="fill:#ccc; stroke:#000"/>
<circle cx="905" cy="350" r="5" style="fill:#ccc; stroke:#000"/>
<line x1="15" y1="365" x2="1295" y2="365" stroke="#000" stroke-width="1"/><text x="20" y="385">2016-11</text>
<text x="115" y="385">404.php</text>
<text x="515" y="385">Donald Trump</text>
<text x="915" y="385">AMGTV</text>
<circle cx="105" cy="380" r="5" style="fill:#ccc; stroke:#000"/>
<circle cx="505" cy="380" r="5" style="fill:#f0f; stroke:#000"/>
<circle cx="905" cy="380" r="5" style="fill:#ccc; stroke:#000"/>
<line x1="15" y1="395" x2="1295" y2="395" stroke="#000" stroke-width="1"/><text x="20" y="415">2016-12</text>
<text x="115" y="415">404.php</text>
<text x="515" y="415">Carrie Fisher</text>
<text x="915" y="415">George Michael</text>
<circle cx="105" cy="410" r="5" style="fill:#ccc; stroke:#000"/>
<circle cx="505" cy="410" r="5" style="fill:#f00; stroke:#000"/>
<circle cx="905" cy="410" r="5" style="fill:#f00; stroke:#000"/>
<line x1="15" y1="425" x2="1295" y2="425" stroke="#000" stroke-width="1"/><text x="20" y="445">2017-01</text>
<text x="115" y="445">404.php</text>
<text x="515" y="445">Donald Trump</text>
<text x="915" y="445">1996 in music</text>
<circle cx="105" cy="440" r="5" style="fill:#ccc; stroke:#000"/>
<circle cx="505" cy="440" r="5" style="fill:#f0f; stroke:#000"/>
<circle cx="905" cy="440" r="5" style="fill:#ccc; stroke:#000"/>
<line x1="15" y1="455" x2="1295" y2="455" stroke="#000" stroke-width="1"/><text x="20" y="475">2017-02</text>
<text x="115" y="475">404.php</text>
<text x="515" y="475">XXX</text>
<text x="915" y="475">Bill Paxton</text>
<circle cx="105" cy="470" r="5" style="fill:#ccc; stroke:#000"/>
<circle cx="505" cy="470" r="5" style="fill:#ccc; stroke:#000"/>
<circle cx="905" cy="470" r="5" style="fill:#f00; stroke:#000"/>
<line x1="15" y1="485" x2="1295" y2="485" stroke="#000" stroke-width="1"/><text x="20" y="505">2017-03</text>
<text x="115" y="505">404.php</text>
<text x="515" y="505">Logan (film)</text>
<text x="915" y="505">XXX</text>
<circle cx="105" cy="500" r="5" style="fill:#ccc; stroke:#000"/>
<circle cx="505" cy="500" r="5" style="fill:#f80; stroke:#000"/>
<circle cx="905" cy="500" r="5" style="fill:#ccc; stroke:#000"/>
<line x1="15" y1="515" x2="1295" y2="515" stroke="#000" stroke-width="1"/><text x="20" y="535">2017-04</text>
<text x="115" y="535">13 Reasons Why</text>
<text x="515" y="535">Thirteen Reasons Why</text>
<text x="915" y="535">The Fate of the Furious</text>
<circle cx="105" cy="530" r="5" style="fill:#f80; stroke:#000"/>
<circle cx="505" cy="530" r="5" style="fill:#f80; stroke:#000"/>
<circle cx="905" cy="530" r="5" style="fill:#f80; stroke:#000"/>
<line x1="15" y1="545" x2="1295" y2="545" stroke="#000" stroke-width="1"/><text x="20" y="565">2017-05</text>
<text x="115" y="565">Baahubali 2: The Conclusion</text>
<text x="515" y="565">List of highest-grossing Indian films</text>
<text x="915" y="565">Chris Cornell</text>
<circle cx="105" cy="560" r="5" style="fill:#f80; stroke:#000"/>
<circle cx="505" cy="560" r="5" style="fill:#ccc; stroke:#000"/>
<circle cx="905" cy="560" r="5" style="fill:#f00; stroke:#000"/>
<line x1="15" y1="575" x2="1295" y2="575" stroke="#000" stroke-width="1"/><text x="20" y="595">2017-06</text>
<text x="115" y="595">XHamster</text>
<text x="515" y="595">Charles Darwin</text>
<text x="915" y="595">Gal Gadot</text>
<circle cx="105" cy="590" r="5" style="fill:#ccc; stroke:#000"/>
<circle cx="505" cy="590" r="5" style="fill:#ccc; stroke:#000"/>
<circle cx="905" cy="590" r="5" style="fill:#ccc; stroke:#000"/>
<line x1="15" y1="605" x2="1295" y2="605" stroke="#000" stroke-width="1"/><text x="20" y="625">2017-07</text>
<text x="115" y="625">XHamster</text>
<text x="515" y="625">Chester Bennington</text>
<text x="915" y="625">Game of Thrones (season 7)</text>
<circle cx="105" cy="620" r="5" style="fill:#ccc; stroke:#000"/>
<circle cx="505" cy="620" r="5" style="fill:#f00; stroke:#000"/>
<circle cx="905" cy="620" r="5" style="fill:#f80; stroke:#000"/>
<line x1="15" y1="635" x2="1295" y2="635" stroke="#000" stroke-width="1"/><text x="20" y="655">2017-08</text>
<text x="115" y="655">XHamster</text>
<text x="515" y="655">Game of Thrones (season 7)</text>
<text x="915" y="655">Game of Thrones</text>
<circle cx="105" cy="650" r="5" style="fill:#ccc; stroke:#000"/>
<circle cx="505" cy="650" r="5" style="fill:#f80; stroke:#000"/>
<circle cx="905" cy="650" r="5" style="fill:#f80; stroke:#000"/>
<line x1="15" y1="665" x2="1295" y2="665" stroke="#000" stroke-width="1"/><text x="20" y="685">2017-09</text>
<text x="115" y="685">XHamster</text>
<text x="515" y="685">It (2017 film)</text>
<text x="915" y="685">Curse, Inc.</text>
<circle cx="105" cy="680" r="5" style="fill:#ccc; stroke:#000"/>
<circle cx="505" cy="680" r="5" style="fill:#f80; stroke:#000"/>
<circle cx="905" cy="680" r="5" style="fill:#ccc; stroke:#000"/>
<line x1="15" y1="695" x2="1295" y2="695" stroke="#000" stroke-width="1"/><text x="20" y="715">2017-10</text>
<text x="115" y="715">XHamster</text>
<text x="515" y="715">Harvey Weinstein</text>
<text x="915" y="715">Tom Petty</text>
<circle cx="105" cy="710" r="5" style="fill:#ccc; stroke:#000"/>
<circle cx="505" cy="710" r="5" style="fill:#f0f; stroke:#000"/>
<circle cx="905" cy="710" r="5" style="fill:#f00; stroke:#000"/>
<line x1="15" y1="725" x2="1295" y2="725" stroke="#000" stroke-width="1"/><text x="20" y="745">2017-11</text>
<text x="115" y="745">XHamster</text>
<text x="515" y="745">Meghan Markle</text>
<text x="915" y="745">Justice League (film)</text>
<circle cx="105" cy="740" r="5" style="fill:#ccc; stroke:#000"/>
<circle cx="505" cy="740" r="5" style="fill:#ff0; stroke:#000"/>
<circle cx="905" cy="740" r="5" style="fill:#f80; stroke:#000"/>
<line x1="15" y1="755" x2="1295" y2="755" stroke="#000" stroke-width="1"/><text x="20" y="775">2017-12</text>
<text x="115" y="775">XHamster</text>
<text x="515" y="775">Star Wars: The Last Jedi</text>
<text x="915" y="775">Bitcoin</text>
<circle cx="105" cy="770" r="5" style="fill:#ccc; stroke:#000"/>
<circle cx="505" cy="770" r="5" style="fill:#f80; stroke:#000"/>
<circle cx="905" cy="770" r="5" style="fill:#ccc; stroke:#000"/>
<line x1="15" y1="785" x2="1295" y2="785" stroke="#000" stroke-width="1"/><text x="20" y="805">2018-01</text>
<text x="115" y="805">XHamster</text>
<text x="515" y="805">JSON Web Token</text>
<text x="915" y="805">HTTP cookie</text>
<circle cx="105" cy="800" r="5" style="fill:#ccc; stroke:#000"/>
<circle cx="505" cy="800" r="5" style="fill:#ccc; stroke:#000"/>
<circle cx="905" cy="800" r="5" style="fill:#ccc; stroke:#000"/>
<line x1="15" y1="815" x2="1295" y2="815" stroke="#000" stroke-width="1"/><text x="20" y="835">2018-02</text>
<text x="115" y="835">Black Panther (film)</text>
<text x="515" y="835">XHamster</text>
<text x="915" y="835">Sridevi</text>
<circle cx="105" cy="830" r="5" style="fill:#f80; stroke:#000"/>
<circle cx="505" cy="830" r="5" style="fill:#ccc; stroke:#000"/>
<circle cx="905" cy="830" r="5" style="fill:#f00; stroke:#000"/>
<line x1="15" y1="845" x2="1295" y2="845" stroke="#000" stroke-width="1"/><text x="20" y="865">2018-03</text>
<text x="115" y="865">Stephen Hawking</text>
<text x="515" y="865">XHamster</text>
<text x="915" y="865">Black Panther (film)</text>
<circle cx="105" cy="860" r="5" style="fill:#f00; stroke:#000"/>
<circle cx="505" cy="860" r="5" style="fill:#ccc; stroke:#000"/>
<circle cx="905" cy="860" r="5" style="fill:#f80; stroke:#000"/>
<line x1="15" y1="875" x2="1295" y2="875" stroke="#000" stroke-width="1"/><text x="20" y="895">2018-04</text>
<text x="115" y="895">Avengers: Infinity War</text>
<text x="515" y="895">XHamster</text>
<text x="915" y="895">Avicii</text>
<circle cx="105" cy="890" r="5" style="fill:#f80; stroke:#000"/>
<circle cx="505" cy="890" r="5" style="fill:#ccc; stroke:#000"/>
<circle cx="905" cy="890" r="5" style="fill:#f00; stroke:#000"/>
<line x1="15" y1="905" x2="1295" y2="905" stroke="#000" stroke-width="1"/><text x="20" y="925">2018-05</text>
<text x="115" y="925">Meghan Markle</text>
<text x="515" y="925">Avengers: Infinity War</text>
<text x="915" y="925">Meghan, Duchess of Sussex</text>
<circle cx="105" cy="920" r="5" style="fill:#ff0; stroke:#000"/>
<circle cx="505" cy="920" r="5" style="fill:#f80; stroke:#000"/>
<circle cx="905" cy="920" r="5" style="fill:#ff0; stroke:#000"/>
<line x1="15" y1="935" x2="1295" y2="935" stroke="#000" stroke-width="1"/><text x="20" y="955">2018-06</text>
<text x="115" y="955">2018 FIFA World Cup</text>
<text x="515" y="955">Anthony Bourdain</text>
<text x="915" y="955">XXXTentacion</text>
<circle cx="105" cy="950" r="5" style="fill:#00f; stroke:#000"/>
<circle cx="505" cy="950" r="5" style="fill:#f00; stroke:#000"/>
<circle cx="905" cy="950" r="5" style="fill:#f00; stroke:#000"/>
<line x1="15" y1="965" x2="1295" y2="965" stroke="#000" stroke-width="1"/><text x="20" y="985">2018-07</text>
<text x="115" y="985">2018 FIFA World Cup</text>
<text x="515" y="985">XHamster</text>
<text x="915" y="985">Exo (band)</text>
<circle cx="105" cy="980" r="5" style="fill:#00f; stroke:#000"/>
<circle cx="505" cy="980" r="5" style="fill:#ccc; stroke:#000"/>
<circle cx="905" cy="980" r="5" style="fill:#ccc; stroke:#000"/>
<line x1="15" y1="995" x2="1295" y2="995" stroke="#000" stroke-width="1"/><text x="20" y="1015">2018-08</text>
<text x="115" y="1015">Aretha Franklin</text>
<text x="515" y="1015">Louis Tomlinson</text>
<text x="915" y="1015">John McCain</text>
<circle cx="105" cy="1010" r="5" style="fill:#f00; stroke:#000"/>
<circle cx="505" cy="1010" r="5" style="fill:#ccc; stroke:#000"/>
<circle cx="905" cy="1010" r="5" style="fill:#f00; stroke:#000"/>
<line x1="15" y1="1025" x2="1295" y2="1025" stroke="#000" stroke-width="1"/><text x="20" y="1045">2018-09</text>
<text x="115" y="1045">Louis Tomlinson</text>
<text x="515" y="1045">Mac Miller</text>
<text x="915" y="1045">Burt Reynolds</text>
<circle cx="105" cy="1040" r="5" style="fill:#ccc; stroke:#000"/>
<circle cx="505" cy="1040" r="5" style="fill:#f00; stroke:#000"/>
<circle cx="905" cy="1040" r="5" style="fill:#f00; stroke:#000"/>
<line x1="15" y1="1055" x2="1295" y2="1055" stroke="#000" stroke-width="1"/><text x="20" y="1075">2018-10</text>
<text x="115" y="1075">Tunnel</text>
<text x="515" y="1075">Cook's Country</text>
<text x="915" y="1075">Louis Tomlinson</text>
<circle cx="105" cy="1070" r="5" style="fill:#ccc; stroke:#000"/>
<circle cx="505" cy="1070" r="5" style="fill:#ccc; stroke:#000"/>
<circle cx="905" cy="1070" r="5" style="fill:#ccc; stroke:#000"/>
<line x1="15" y1="1085" x2="1295" y2="1085" stroke="#000" stroke-width="1"/><text x="20" y="1105">2018-11</text>
<text x="115" y="1105">Freddie Mercury</text>
<text x="515" y="1105">Stan Lee</text>
<text x="915" y="1105">XHamster</text>
<circle cx="105" cy="1100" r="5" style="fill:#f80; stroke:#000"/>
<circle cx="505" cy="1100" r="5" style="fill:#f00; stroke:#000"/>
<circle cx="905" cy="1100" r="5" style="fill:#ccc; stroke:#000"/>
<line x1="15" y1="1115" x2="1295" y2="1115" stroke="#000" stroke-width="1"/><text x="20" y="1135">2018-12</text>
<text x="115" y="1135">George H. W. Bush</text>
<text x="515" y="1135">Jason Momoa</text>
<text x="915" y="1135">2.0 (film)</text>
<circle cx="105" cy="1130" r="5" style="fill:#f00; stroke:#000"/>
<circle cx="505" cy="1130" r="5" style="fill:#f80; stroke:#000"/>
<circle cx="905" cy="1130" r="5" style="fill:#f80; stroke:#000"/>
<line x1="15" y1="1145" x2="1295" y2="1145" stroke="#000" stroke-width="1"/><text x="20" y="1165">2019-01</text>
<text x="115" y="1165">Ted Bundy</text>
<text x="515" y="1165">Louis Tomlinson</text>
<text x="915" y="1165">XHamster</text>
<circle cx="105" cy="1160" r="5" style="fill:#ccc; stroke:#000"/>
<circle cx="505" cy="1160" r="5" style="fill:#ccc; stroke:#000"/>
<circle cx="905" cy="1160" r="5" style="fill:#ccc; stroke:#000"/>
<line x1="15" y1="1175" x2="1295" y2="1175" stroke="#000" stroke-width="1"/><text x="20" y="1195">2019-02</text>
<text x="115" y="1195">Freddie Mercury</text>
<text x="515" y="1195">Louis Tomlinson</text>
<text x="915" y="1195">Grover</text>
<circle cx="105" cy="1190" r="5" style="fill:#f80; stroke:#000"/>
<circle cx="505" cy="1190" r="5" style="fill:#ccc; stroke:#000"/>
<circle cx="905" cy="1190" r="5" style="fill:#ccc; stroke:#000"/>
<line x1="15" y1="1205" x2="1295" y2="1205" stroke="#000" stroke-width="1"/><text x="20" y="1225">2019-03</text>
<text x="115" y="1225">Captain Marvel (film)</text>
<text x="515" y="1225">Luke Perry</text>
<text x="915" y="1225">Us (2019 film)</text>
<circle cx="105" cy="1220" r="5" style="fill:#f80; stroke:#000"/>
<circle cx="505" cy="1220" r="5" style="fill:#f00; stroke:#000"/>
<circle cx="905" cy="1220" r="5" style="fill:#f80; stroke:#000"/>
<line x1="15" y1="1235" x2="1295" y2="1235" stroke="#000" stroke-width="1"/><text x="20" y="1255">2019-04</text>
<text x="115" y="1255">Avengers: Endgame</text>
<text x="515" y="1255">Nipsey Hussle</text>
<text x="915" y="1255">Notre-Dame de Paris</text>
<circle cx="105" cy="1250" r="5" style="fill:#f80; stroke:#000"/>
<circle cx="505" cy="1250" r="5" style="fill:#f00; stroke:#000"/>
<circle cx="905" cy="1250" r="5" style="fill:#ff0; stroke:#000"/>
<line x1="15" y1="1265" x2="1295" y2="1265" stroke="#000" stroke-width="1"/><text x="20" y="1285">2019-05</text>
<text x="115" y="1285">Avengers: Endgame</text>
<text x="515" y="1285">List of highest-grossing films</text>
<text x="915" y="1285">Ted Bundy</text>
<circle cx="105" cy="1280" r="5" style="fill:#f80; stroke:#000"/>
<circle cx="505" cy="1280" r="5" style="fill:#ccc; stroke:#000"/>
<circle cx="905" cy="1280" r="5" style="fill:#ccc; stroke:#000"/>
<line x1="15" y1="1295" x2="1295" y2="1295" stroke="#000" stroke-width="1"/><text x="20" y="1315">2019-06</text>
<text x="115" y="1315">Chernobyl disaster</text>
<text x="515" y="1315">Central Park jogger case</text>
<text x="915" y="1315">Keanu Reeves</text>
<circle cx="105" cy="1310" r="5" style="fill:#f80; stroke:#000"/>
<circle cx="505" cy="1310" r="5" style="fill:#f0f; stroke:#000"/>
<circle cx="905" cy="1310" r="5" style="fill:#ccc; stroke:#000"/>
<line x1="15" y1="1325" x2="1295" y2="1325" stroke="#000" stroke-width="1"/><text x="20" y="1345">2019-07</text>
<text x="115" y="1345">Cameron Boyce</text>
<text x="515" y="1345">Spider-Man: Far From Home</text>
<text x="915" y="1345">Area 51</text>
<circle cx="105" cy="1340" r="5" style="fill:#f00; stroke:#000"/>
<circle cx="505" cy="1340" r="5" style="fill:#f80; stroke:#000"/>
<circle cx="905" cy="1340" r="5" style="fill:#ccc; stroke:#000"/>
<line x1="15" y1="1355" x2="1295" y2="1355" stroke="#000" stroke-width="1"/><text x="20" y="1375">2019-08</text>
<text x="115" y="1375">Jeffrey Epstein</text>
<text x="515" y="1375">Article 370 of the Constitution of India</text>
<text x="915" y="1375">Wikipedia</text>
<circle cx="105" cy="1370" r="5" style="fill:#080; stroke:#000"/>
<circle cx="505" cy="1370" r="5" style="fill:#f0f; stroke:#000"/>
<circle cx="905" cy="1370" r="5" style="fill:#ccc; stroke:#000"/>
<line x1="15" y1="1385" x2="1295" y2="1385" stroke="#000" stroke-width="1"/><text x="20" y="1405">2019-09</text>
<text x="115" y="1405">Wikipedia</text>
<text x="515" y="1405">List of Queen of the South episodes</text>
<text x="915" y="1405">It Chapter Two</text>
<circle cx="105" cy="1400" r="5" style="fill:#ccc; stroke:#000"/>
<circle cx="505" cy="1400" r="5" style="fill:#ccc; stroke:#000"/>
<circle cx="905" cy="1400" r="5" style="fill:#f80; stroke:#000"/>
<line x1="15" y1="1415" x2="1295" y2="1415" stroke="#000" stroke-width="1"/><text x="20" y="1435">2019-10</text>
<text x="115" y="1435">Wikipedia</text>
<text x="515" y="1435">Joker (2019 film)</text>
<text x="915" y="1435">List of most popular websites</text>
<circle cx="105" cy="1430" r="5" style="fill:#ccc; stroke:#000"/>
<circle cx="505" cy="1430" r="5" style="fill:#f80; stroke:#000"/>
<circle cx="905" cy="1430" r="5" style="fill:#ccc; stroke:#000"/>
<line x1="15" y1="1445" x2="1295" y2="1445" stroke="#000" stroke-width="1"/><text x="20" y="1465">2019-11</text>
<text x="115" y="1465">Simple Mail Transfer Protocol</text>
<text x="515" y="1465">The Mandalorian</text>
<text x="915" y="1465">List of awards and nominations received by Meryl Streep</text>
<circle cx="105" cy="1460" r="5" style="fill:#ccc; stroke:#000"/>
<circle cx="505" cy="1460" r="5" style="fill:#f80; stroke:#000"/>
<circle cx="905" cy="1460" r="5" style="fill:#ccc; stroke:#000"/>
<line x1="15" y1="1475" x2="1295" y2="1475" stroke="#000" stroke-width="1"/><text x="20" y="1495">2019-12</text>
<text x="115" y="1495">Star Wars: The Rise of Skywalker</text>
<text x="515" y="1495">The Mandalorian</text>
<text x="915" y="1495">The Witcher (TV series)</text>
<circle cx="105" cy="1490" r="5" style="fill:#f80; stroke:#000"/>
<circle cx="505" cy="1490" r="5" style="fill:#f80; stroke:#000"/>
<circle cx="905" cy="1490" r="5" style="fill:#f80; stroke:#000"/>
<line x1="15" y1="1505" x2="1295" y2="1505" stroke="#000" stroke-width="1"/><text x="20" y="1525">2020-01</text>
<text x="115" y="1525">Kobe Bryant</text>
<text x="515" y="1525">Media</text>
<text x="915" y="1525">Coronavirus</text>
<circle cx="105" cy="1520" r="5" style="fill:#f00; stroke:#000"/>
<circle cx="505" cy="1520" r="5" style="fill:#ccc; stroke:#000"/>
<circle cx="905" cy="1520" r="5" style="fill:#ff0; stroke:#000"/>
<line x1="15" y1="1535" x2="1295" y2="1535" stroke="#000" stroke-width="1"/><text x="20" y="1555">2020-02</text>
<text x="115" y="1555">United States Senate</text>
<text x="515" y="1555">Wikipedia</text>
<text x="915" y="1555">Parasite (2019 film)</text>
<circle cx="105" cy="1550" r="5" style="fill:#ccc; stroke:#000"/>
<circle cx="505" cy="1550" r="5" style="fill:#ccc; stroke:#000"/>
<circle cx="905" cy="1550" r="5" style="fill:#f80; stroke:#000"/>
<line x1="15" y1="1565" x2="1295" y2="1565" stroke="#000" stroke-width="1"/><text x="20" y="1585">2020-03</text>
<text x="115" y="1585">United States Senate</text>
<text x="515" y="1585">2019–20 coronavirus pandemic</text>
<text x="915" y="1585">Coronavirus</text>
<circle cx="105" cy="1580" r="5" style="fill:#ccc; stroke:#000"/>
<circle cx="505" cy="1580" r="5" style="fill:#ff0; stroke:#000"/>
<circle cx="905" cy="1580" r="5" style="fill:#ff0; stroke:#000"/>
<line x1="15" y1="1595" x2="1295" y2="1595" stroke="#000" stroke-width="1"/><text x="20" y="1615">2020-04</text>
<text x="115" y="1615">United States Senate</text>
<text x="515" y="1615">2019–20 coronavirus pandemic</text>
<text x="915" y="1615">Tasuku Honjo</text>
<circle cx="105" cy="1610" r="5" style="fill:#ccc; stroke:#000"/>
<circle cx="505" cy="1610" r="5" style="fill:#ff0; stroke:#000"/>
<circle cx="905" cy="1610" r="5" style="fill:#ccc; stroke:#000"/>
<line x1="15" y1="1625" x2="1295" y2="1625" stroke="#000" stroke-width="1"/><text x="20" y="1645">2020-05</text>
<text x="115" y="1645">Michael Jordan</text>
<text x="515" y="1645">Elon Musk</text>
<text x="915" y="1645">Bible</text>
<circle cx="105" cy="1640" r="5" style="fill:#f80; stroke:#000"/>
<circle cx="505" cy="1640" r="5" style="fill:#ccc; stroke:#000"/>
<circle cx="905" cy="1640" r="5" style="fill:#ccc; stroke:#000"/>
<line x1="15" y1="1655" x2="1295" y2="1655" stroke="#000" stroke-width="1"/><text x="20" y="1675">2020-06</text>
<text x="115" y="1675">Sushant Singh Rajput</text>
<text x="515" y="1675">Juneteenth</text>
<text x="915" y="1675">Bible</text>
<circle cx="105" cy="1670" r="5" style="fill:#f00; stroke:#000"/>
<circle cx="505" cy="1670" r="5" style="fill:#ccc; stroke:#000"/>
<circle cx="905" cy="1670" r="5" style="fill:#ccc; stroke:#000"/>
<line x1="15" y1="1685" x2="1295" y2="1685" stroke="#000" stroke-width="1"/><text x="20" y="1705">2020-07</text>
<text x="115" y="1705">Alexander Hamilton</text>
<text x="515" y="1705">Naya Rivera</text>
<text x="915" y="1705">Hamilton (musical)</text>
<circle cx="105" cy="1700" r="5" style="fill:#f80; stroke:#000"/>
<circle cx="505" cy="1700" r="5" style="fill:#f00; stroke:#000"/>
<circle cx="905" cy="1700" r="5" style="fill:#f80; stroke:#000"/>
<line x1="15" y1="1715" x2="1295" y2="1715" stroke="#000" stroke-width="1"/><text x="20" y="1735">2020-08</text>
<text x="115" y="1735">Kamala Harris</text>
<text x="515" y="1735">Chadwick Boseman</text>
<text x="915" y="1735">Bible</text>
<circle cx="105" cy="1730" r="5" style="fill:#f0f; stroke:#000"/>
<circle cx="505" cy="1730" r="5" style="fill:#f00; stroke:#000"/>
<circle cx="905" cy="1730" r="5" style="fill:#ccc; stroke:#000"/>
<line x1="15" y1="1745" x2="1295" y2="1745" stroke="#000" stroke-width="1"/><text x="20" y="1765">2020-09</text>
<text x="115" y="1765">Ruth Bader Ginsburg</text>
<text x="515" y="1765">Amy Coney Barrett</text>
<text x="915" y="1765">Tenet (film)</text>
<circle cx="105" cy="1760" r="5" style="fill:#080; stroke:#000"/>
<circle cx="505" cy="1760" r="5" style="fill:#f0f; stroke:#000"/>
<circle cx="905" cy="1760" r="5" style="fill:#f80; stroke:#000"/>
<line x1="15" y1="1775" x2="1295" y2="1775" stroke="#000" stroke-width="1"/><text x="20" y="1795">2020-10</text>
<text x="115" y="1795">The Haunting of Bly Manor</text>
<text x="515" y="1795">Bible</text>
<text x="915" y="1795">Eddie Van Halen</text>
<circle cx="105" cy="1790" r="5" style="fill:#f80; stroke:#000"/>
<circle cx="505" cy="1790" r="5" style="fill:#ccc; stroke:#000"/>
<circle cx="905" cy="1790" r="5" style="fill:#f00; stroke:#000"/>
<line x1="15" y1="1805" x2="1295" y2="1805" stroke="#000" stroke-width="1"/><text x="20" y="1825">2020-11</text>
<text x="115" y="1825">Donald Trump</text>
<text x="515" y="1825">Joe Biden</text>
<text x="915" y="1825">Kamala Harris</text>
<circle cx="105" cy="1820" r="5" style="fill:#f0f; stroke:#000"/>
<circle cx="505" cy="1820" r="5" style="fill:#f0f; stroke:#000"/>
<circle cx="905" cy="1820" r="5" style="fill:#f0f; stroke:#000"/>
<line x1="15" y1="1835" x2="1295" y2="1835" stroke="#000" stroke-width="1"/><text x="20" y="1855">2020-12</text>
<text x="115" y="1855">Elliot Page</text>
<text x="515" y="1855">Elizabeth II</text>
<text x="915" y="1855">Deaths in 2020</text>
<circle cx="105" cy="1850" r="5" style="fill:#ff0; stroke:#000"/>
<circle cx="505" cy="1850" r="5" style="fill:#ccc; stroke:#000"/>
<circle cx="905" cy="1850" r="5" style="fill:#ccc; stroke:#000"/>
<line x1="15" y1="1865" x2="1295" y2="1865" stroke="#000" stroke-width="1"/><text x="20" y="1885">2021-01</text>
<text x="115" y="1885">Joe Biden</text>
<text x="515" y="1885">Donald Trump</text>
<text x="915" y="1885">Kamala Harris</text>
<circle cx="105" cy="1880" r="5" style="fill:#f0f; stroke:#000"/>
<circle cx="505" cy="1880" r="5" style="fill:#f0f; stroke:#000"/>
<circle cx="905" cy="1880" r="5" style="fill:#f0f; stroke:#000"/>
<line x1="15" y1="1895" x2="1295" y2="1895" stroke="#000" stroke-width="1"/><text x="20" y="1915">2021-02</text>
<text x="115" y="1915">WandaVision</text>
<text x="515" y="1915">Tom Brady</text>
<text x="915" y="1915">Bible</text>
<circle cx="105" cy="1910" r="5" style="fill:#f80; stroke:#000"/>
<circle cx="505" cy="1910" r="5" style="fill:#00f; stroke:#000"/>
<circle cx="905" cy="1910" r="5" style="fill:#ccc; stroke:#000"/>
<line x1="15" y1="1925" x2="1295" y2="1925" stroke="#000" stroke-width="1"/><text x="20" y="1945">2021-03</text>
<text x="115" y="1945">Zack Snyder's Justice League</text>
<text x="515" y="1945">Deaths in 2021</text>
<text x="915" y="1945">Elizabeth II</text>
<circle cx="105" cy="1940" r="5" style="fill:#f80; stroke:#000"/>
<circle cx="505" cy="1940" r="5" style="fill:#ccc; stroke:#000"/>
<circle cx="905" cy="1940" r="5" style="fill:#ccc; stroke:#000"/>
<line x1="15" y1="1955" x2="1295" y2="1955" stroke="#000" stroke-width="1"/><text x="20" y="1975">2021-04</text>
<text x="115" y="1975">Prince Philip, Duke of Edinburgh</text>
<text x="515" y="1975">DMX (rapper)</text>
<text x="915" y="1975">Elizabeth II</text>
<circle cx="105" cy="1970" r="5" style="fill:#f00; stroke:#000"/>
<circle cx="505" cy="1970" r="5" style="fill:#f00; stroke:#000"/>
<circle cx="905" cy="1970" r="5" style="fill:#ccc; stroke:#000"/>
<line x1="15" y1="1985" x2="1295" y2="1985" stroke="#000" stroke-width="1"/><text x="20" y="2005">2021-05</text>
<text x="115" y="2005">Bible</text>
<text x="515" y="2005">Deaths in 2021</text>
<text x="915" y="2005">Elon Musk</text>
<circle cx="105" cy="2000" r="5" style="fill:#ccc; stroke:#000"/>
<circle cx="505" cy="2000" r="5" style="fill:#ccc; stroke:#000"/>
<circle cx="905" cy="2000" r="5" style="fill:#ccc; stroke:#000"/>
<line x1="15" y1="2015" x2="1295" y2="2015" stroke="#000" stroke-width="1"/><text x="20" y="2035">2021-06</text>
<text x="115" y="2035">UEFA Euro 2020</text>
<text x="515" y="2035">Microsoft Office</text>
<text x="915" y="2035">Juneteenth</text>
<circle cx="105" cy="2030" r="5" style="fill:#00f; stroke:#000"/>
<circle cx="505" cy="2030" r="5" style="fill:#ccc; stroke:#000"/>
<circle cx="905" cy="2030" r="5" style="fill:#ff0; stroke:#000"/>
<line x1="15" y1="2045" x2="1295" y2="2045" stroke="#000" stroke-width="1"/><text x="20" y="2065">2021-07</text>
<text x="115" y="2065">2020 Summer Olympics</text>
<text x="515" y="2065">Black Widow (2021 film)</text>
<text x="915" y="2065">Cleopatra</text>
<circle cx="105" cy="2060" r="5" style="fill:#00f; stroke:#000"/>
<circle cx="505" cy="2060" r="5" style="fill:#f80; stroke:#000"/>
<circle cx="905" cy="2060" r="5" style="fill:#ccc; stroke:#000"/>
<line x1="15" y1="2075" x2="1295" y2="2075" stroke="#000" stroke-width="1"/><text x="20" y="2095">2021-08</text>
<text x="115" y="2095">Taliban</text>
<text x="515" y="2095">Afghanistan</text>
<text x="915" y="2095">The Suicide Squad (film)</text>
<circle cx="105" cy="2090" r="5" style="fill:#f0f; stroke:#000"/>
<circle cx="505" cy="2090" r="5" style="fill:#f0f; stroke:#000"/>
<circle cx="905" cy="2090" r="5" style="fill:#f80; stroke:#000"/>
<line x1="15" y1="2105" x2="1295" y2="2105" stroke="#000" stroke-width="1"/><text x="20" y="2125">2021-09</text>
<text x="115" y="2125">Squid Game</text>
<text x="515" y="2125">Emma Raducanu</text>
<text x="915" y="2125">Shang-Chi and the Legend of the Ten Rings</text>
<circle cx="105" cy="2120" r="5" style="fill:#f80; stroke:#000"/>
<circle cx="505" cy="2120" r="5" style="fill:#00f; stroke:#000"/>
<circle cx="905" cy="2120" r="5" style="fill:#f80; stroke:#000"/>
<line x1="15" y1="2135" x2="1295" y2="2135" stroke="#000" stroke-width="1"/><text x="20" y="2155">2021-10</text>
<text x="115" y="2155">Squid Game</text>
<text x="515" y="2155">Dune (2021 film)</text>
<text x="915" y="2155">Cleopatra</text>
<circle cx="105" cy="2150" r="5" style="fill:#f80; stroke:#000"/>
<circle cx="505" cy="2150" r="5" style="fill:#f80; stroke:#000"/>
<circle cx="905" cy="2150" r="5" style="fill:#ccc; stroke:#000"/>
<line x1="15" y1="2165" x2="1295" y2="2165" stroke="#000" stroke-width="1"/><text x="20" y="2185">2021-11</text>
<text x="115" y="2185">Kenosha unrest shooting</text>
<text x="515" y="2185">Eternals (film)</text>
<text x="915" y="2185">Cleopatra</text>
<circle cx="105" cy="2180" r="5" style="fill:#f0f; stroke:#000"/>
<circle cx="505" cy="2180" r="5" style="fill:#f80; stroke:#000"/>
<circle cx="905" cy="2180" r="5" style="fill:#ccc; stroke:#000"/>
<line x1="15" y1="2195" x2="1295" y2="2195" stroke="#000" stroke-width="1"/><text x="20" y="2215">2021-12</text>
<text x="115" y="2215">Spider-Man: No Way Home</text>
<text x="515" y="2215">Cleopatra</text>
<text x="915" y="2215">Betty White</text>
<circle cx="105" cy="2210" r="5" style="fill:#f80; stroke:#000"/>
<circle cx="505" cy="2210" r="5" style="fill:#ccc; stroke:#000"/>
<circle cx="905" cy="2210" r="5" style="fill:#f00; stroke:#000"/>
<line x1="15" y1="2225" x2="1295" y2="2225" stroke="#000" stroke-width="1"/><text x="20" y="2245">2022-01</text>
<text x="115" y="2245">Bob Saget</text>
<text x="515" y="2245">Betty White</text>
<text x="915" y="2245">Bible</text>
<circle cx="105" cy="2240" r="5" style="fill:#f00; stroke:#000"/>
<circle cx="505" cy="2240" r="5" style="fill:#f00; stroke:#000"/>
<circle cx="905" cy="2240" r="5" style="fill:#ccc; stroke:#000"/>
<line x1="15" y1="2255" x2="1295" y2="2255" stroke="#000" stroke-width="1"/><text x="20" y="2275">2022-02</text>
<text x="115" y="2275">Ukraine</text>
<text x="515" y="2275">2022 Russian invasion of Ukraine</text>
<text x="915" y="2275">Anna Sorokin</text>
<circle cx="105" cy="2270" r="5" style="fill:#f0f; stroke:#000"/>
<circle cx="505" cy="2270" r="5" style="fill:#f0f; stroke:#000"/>
<circle cx="905" cy="2270" r="5" style="fill:#f80; stroke:#000"/>
<line x1="15" y1="2285" x2="1295" y2="2285" stroke="#000" stroke-width="1"/><text x="20" y="2305">2022-03</text>
<text x="115" y="2305">2022 Russian invasion of Ukraine</text>
<text x="515" y="2305">Vladimir Putin</text>
<text x="915" y="2305">The Batman (film)</text>
<circle cx="105" cy="2300" r="5" style="fill:#f0f; stroke:#000"/>
<circle cx="505" cy="2300" r="5" style="fill:#f0f; stroke:#000"/>
<circle cx="905" cy="2300" r="5" style="fill:#f80; stroke:#000"/>
<line x1="15" y1="2315" x2="1295" y2="2315" stroke="#000" stroke-width="1"/><text x="20" y="2335">2022-04</text>
<text x="115" y="2335">K.G.F: Chapter 2</text>
<text x="515" y="2335">Amber Heard</text>
<text x="915" y="2335">Elon Musk</text>
<circle cx="105" cy="2330" r="5" style="fill:#f80; stroke:#000"/>
<circle cx="505" cy="2330" r="5" style="fill:#f0f; stroke:#000"/>
<circle cx="905" cy="2330" r="5" style="fill:#ccc; stroke:#000"/>
<line x1="15" y1="2345" x2="1295" y2="2345" stroke="#000" stroke-width="1"/><text x="20" y="2365">2022-05</text>
<text x="115" y="2365">Doctor Strange in the Multiverse of Madness</text>
<text x="515" y="2365">Amber Heard</text>
<text x="915" y="2365">Johnny Depp</text>
<circle cx="105" cy="2360" r="5" style="fill:#f80; stroke:#000"/>
<circle cx="505" cy="2360" r="5" style="fill:#f0f; stroke:#000"/>
<circle cx="905" cy="2360" r="5" style="fill:#f0f; stroke:#000"/>
<line x1="15" y1="2375" x2="1295" y2="2375" stroke="#000" stroke-width="1"/><text x="20" y="2395">2022-06</text>
<text x="115" y="2395">Cleopatra</text>
<text x="515" y="2395">Top Gun: Maverick</text>
<text x="915" y="2395">Roe v. Wade</text>
<circle cx="105" cy="2390" r="5" style="fill:#ccc; stroke:#000"/>
<circle cx="505" cy="2390" r="5" style="fill:#f80; stroke:#000"/>
<circle cx="905" cy="2390" r="5" style="fill:#f0f; stroke:#000"/>
<line x1="15" y1="2405" x2="1295" y2="2405" stroke="#000" stroke-width="1"/><text x="20" y="2425">2022-07</text>
<text x="115" y="2425">Thor: Love and Thunder</text>
<text x="515" y="2425">Cleopatra</text>
<text x="915" y="2425">Shinzo Abe</text>
<circle cx="105" cy="2420" r="5" style="fill:#f80; stroke:#000"/>
<circle cx="505" cy="2420" r="5" style="fill:#ccc; stroke:#000"/>
<circle cx="905" cy="2420" r="5" style="fill:#080; stroke:#000"/>
<line x1="15" y1="2435" x2="1295" y2="2435" stroke="#000" stroke-width="1"/><text x="20" y="2455">2022-08</text>
<text x="115" y="2455">Anne Heche</text>
<text x="515" y="2455">Olivia Newton-John</text>
<text x="915" y="2455">Cleopatra</text>
<circle cx="105" cy="2450" r="5" style="fill:#f00; stroke:#000"/>
<circle cx="505" cy="2450" r="5" style="fill:#f00; stroke:#000"/>
<circle cx="905" cy="2450" r="5" style="fill:#ccc; stroke:#000"/>
<line x1="15" y1="2465" x2="1295" y2="2465" stroke="#000" stroke-width="1"/><text x="20" y="2485">2022-09</text>
<text x="115" y="2485">Elizabeth II</text>
<text x="515" y="2485">Jeffrey Dahmer</text>
<text x="915" y="2485">Charles III</text>
<circle cx="105" cy="2480" r="5" style="fill:#f00; stroke:#000"/>
<circle cx="505" cy="2480" r="5" style="fill:#f80; stroke:#000"/>
<circle cx="905" cy="2480" r="5" style="fill:#ccc; stroke:#000"/>
<line x1="15" y1="2495" x2="1295" y2="2495" stroke="#000" stroke-width="1"/><text x="20" y="2515">2022-10</text>
<text x="115" y="2515">Jeffrey Dahmer</text>
<text x="515" y="2515">Rishi Sunak</text>
<text x="915" y="2515">Cleopatra</text>
<circle cx="105" cy="2510" r="5" style="fill:#ccc; stroke:#000"/>
<circle cx="505" cy="2510" r="5" style="fill:#f0f; stroke:#000"/>
<circle cx="905" cy="2510" r="5" style="fill:#ccc; stroke:#000"/>
<line x1="15" y1="2525" x2="1295" y2="2525" stroke="#000" stroke-width="1"/></svg>